<svg xmlns="http://www.w3.org/2000/svg" viewBox="0 0 128 128" fill="none">
  <defs>
    <linearGradient id="shield" x1="20" y1="12" x2="104" y2="118" gradientUnits="userSpaceOnUse">
      <stop stop-color="#7dffb4"/>
      <stop offset=".52" stop-color="#1ed878"/>
      <stop offset="1" stop-color="#33c6ff"/>
    </linearGradient>
    <linearGradient id="gloss" x1="38" y1="18" x2="70" y2="78" gradientUnits="userSpaceOnUse">
      <stop stop-color="#ffffff" stop-opacity=".42"/>
      <stop offset="1" stop-color="#ffffff" stop-opacity="0"/>
    </linearGradient>
  </defs>
  <path fill="url(#shield)" d="M64 13c17 10 32 13 47 15v31c0 31-18 52-47 62-29-10-47-31-47-62V28c15-2 30-5 47-15Z"/>
  <path fill="url(#gloss)" d="M64 13c17 10 32 13 47 15v31c0 31-18 52-47 62-29-10-47-31-47-62V28c15-2 30-5 47-15Z"/>
  <path fill="none" stroke="#053b28" stroke-opacity=".22" stroke-linecap="round" stroke-linejoin="round" stroke-width="13" d="m43 66 14 15 31-36"/>
  <path fill="none" stroke="#ffffff" stroke-linecap="round" stroke-linejoin="round" stroke-width="12" d="m43 63 14 15 31-36"/>
</svg>
